<svg viewBox="0 0 25 24" fill="black" xmlns="http://www.w3.org/2000/svg">
	<path d="M4.5 5L5.03033 4.46967C4.81583 4.25517 4.49324 4.191 4.21299 4.30709C3.93273 4.42318 3.75 4.69665 3.75 5H4.5ZM4.5 16H3.75C3.75 16.4142 4.08579 16.75 4.5 16.75V16ZM20.5 16V16.75C20.9142 16.75 21.25 16.4142 21.25 16H20.5ZM20.5 5H21.25C21.25 4.69665 21.0673 4.42318 20.787 4.30709C20.5068 4.191 20.1842 4.25517 19.9697 4.46967L20.5 5ZM16.5 9L15.9697 9.53033C16.2626 9.82322 16.7374 9.82322 17.0303 9.53033L16.5 9ZM8.5 9L7.96967 9.53033C8.26256 9.82322 8.73744 9.82322 9.03033 9.53033L8.5 9ZM12.5 5L13.0303 4.46967C12.7374 4.17678 12.2626 4.17678 11.9697 4.46967L12.5 5ZM4.5 18.25C4.08579 18.25 3.75 18.5858 3.75 19C3.75 19.4142 4.08579 19.75 4.5 19.75V18.25ZM20.5 19.75C20.9142 19.75 21.25 19.4142 21.25 19C21.25 18.5858 20.9142 18.25 20.5 18.25V19.75ZM3.75 5V16H5.25V5H3.75ZM4.5 16.75H20.5V15.25H4.5V16.75ZM21.25 16V5H19.75V16H21.25ZM19.9697 4.46967L15.9697 8.46967L17.0303 9.53033L21.0303 5.53033L19.9697 4.46967ZM3.96967 5.53033L7.96967 9.53033L9.03033 8.46967L5.03033 4.46967L3.96967 5.53033ZM9.03033 9.53033L13.0303 5.53033L11.9697 4.46967L7.96967 8.46967L9.03033 9.53033ZM11.9697 5.53033L15.9697 9.53033L17.0303 8.46967L13.0303 4.46967L11.9697 5.53033ZM4.5 19.75H20.5V18.25H4.5V19.75Z" />
</svg>
