<svg viewBox="0 0 25 24" fill="black" xmlns="http://www.w3.org/2000/svg">
	<path d="M20.75 12C20.75 16.5563 17.0563 20.25 12.5 20.25V21.75C17.8848 21.75 22.25 17.3848 22.25 12H20.75ZM12.5 20.25C7.94365 20.25 4.25 16.5563 4.25 12H2.75C2.75 17.3848 7.11522 21.75 12.5 21.75V20.25ZM4.25 12C4.25 7.44365 7.94365 3.75 12.5 3.75V2.25C7.11522 2.25 2.75 6.61522 2.75 12H4.25ZM12.5 3.75C17.0563 3.75 20.75 7.44365 20.75 12H22.25C22.25 6.61522 17.8848 2.25 12.5 2.25V3.75ZM12.5 3C12.05 3.6 12.0497 3.5998 12.0495 3.59961C12.0494 3.59956 12.0492 3.59939 12.0491 3.59929C12.0488 3.5991 12.0486 3.59895 12.0485 3.59885C12.0482 3.59864 12.0482 3.59862 12.0484 3.59877C12.0488 3.59908 12.0501 3.6001 12.0523 3.60183C12.0568 3.6053 12.0649 3.61163 12.0764 3.62081C12.0994 3.63917 12.1358 3.66893 12.1838 3.71007C12.2798 3.79238 12.4218 3.92001 12.5947 4.09283C12.9407 4.43885 13.4077 4.96357 13.876 5.66603C14.8106 7.06805 15.75 9.17573 15.75 12H17.25C17.25 8.82427 16.1894 6.43195 15.124 4.83397C14.5923 4.03643 14.0593 3.43615 13.6553 3.03217C13.4532 2.82999 13.2827 2.67637 13.16 2.57118C13.0986 2.51857 13.0491 2.47802 13.0134 2.4495C12.9956 2.43525 12.9813 2.42399 12.9706 2.41575C12.9653 2.41162 12.9609 2.40825 12.9574 2.40562C12.9557 2.40431 12.9542 2.40319 12.953 2.40225C12.9524 2.40178 12.9518 2.40136 12.9513 2.40098C12.9511 2.4008 12.9507 2.40055 12.9506 2.40046C12.9503 2.40022 12.95 2.4 12.5 3ZM15.75 12C15.75 14.8243 14.8106 16.9319 13.876 18.334C13.4077 19.0364 12.9407 19.5611 12.5947 19.9072C12.4218 20.08 12.2798 20.2076 12.1838 20.2899C12.1358 20.3311 12.0994 20.3608 12.0764 20.3792C12.0649 20.3884 12.0568 20.3947 12.0523 20.3982C12.0501 20.3999 12.0488 20.4009 12.0484 20.4012C12.0482 20.4014 12.0482 20.4014 12.0485 20.4012C12.0486 20.401 12.0488 20.4009 12.0491 20.4007C12.0492 20.4006 12.0494 20.4004 12.0495 20.4004C12.0497 20.4002 12.05 20.4 12.5 21C12.95 21.6 12.9503 21.5998 12.9506 21.5995C12.9507 21.5994 12.9511 21.5992 12.9513 21.599C12.9518 21.5986 12.9524 21.5982 12.953 21.5977C12.9542 21.5968 12.9557 21.5957 12.9574 21.5944C12.9609 21.5918 12.9653 21.5884 12.9706 21.5843C12.9813 21.576 12.9956 21.5648 13.0134 21.5505C13.0491 21.522 13.0986 21.4814 13.16 21.4288C13.2827 21.3236 13.4532 21.17 13.6553 20.9678C14.0593 20.5639 14.5923 19.9636 15.124 19.166C16.1894 17.5681 17.25 15.1757 17.25 12H15.75ZM12.5 21C12.95 20.4 12.9503 20.4002 12.9505 20.4004C12.9506 20.4004 12.9508 20.4006 12.9509 20.4007C12.9512 20.4009 12.9514 20.401 12.9515 20.4012C12.9518 20.4014 12.9518 20.4014 12.9516 20.4012C12.9512 20.4009 12.9499 20.3999 12.9477 20.3982C12.9432 20.3947 12.9351 20.3884 12.9236 20.3792C12.9006 20.3608 12.8642 20.3311 12.8162 20.2899C12.7202 20.2076 12.5782 20.08 12.4053 19.9072C12.0593 19.5611 11.5923 19.0364 11.124 18.334C10.1894 16.9319 9.25 14.8243 9.25 12H7.75C7.75 15.1757 8.81065 17.5681 9.87596 19.166C10.4077 19.9636 10.9407 20.5639 11.3447 20.9678C11.5468 21.17 11.7173 21.3236 11.84 21.4288C11.9014 21.4814 11.9509 21.522 11.9866 21.5505C12.0044 21.5648 12.0187 21.576 12.0294 21.5843C12.0347 21.5884 12.0391 21.5918 12.0426 21.5944C12.0443 21.5957 12.0458 21.5968 12.047 21.5977C12.0476 21.5982 12.0482 21.5986 12.0487 21.599C12.0489 21.5992 12.0493 21.5994 12.0494 21.5995C12.0497 21.5998 12.05 21.6 12.5 21ZM9.25 12C9.25 9.17573 10.1894 7.06805 11.124 5.66603C11.5923 4.96357 12.0593 4.43885 12.4053 4.09283C12.5782 3.92001 12.7202 3.79238 12.8162 3.71007C12.8642 3.66893 12.9006 3.63917 12.9236 3.62081C12.9351 3.61163 12.9432 3.6053 12.9477 3.60183C12.9499 3.6001 12.9512 3.59908 12.9516 3.59877C12.9518 3.59862 12.9518 3.59864 12.9515 3.59885C12.9514 3.59895 12.9512 3.5991 12.9509 3.59929C12.9508 3.59939 12.9506 3.59956 12.9505 3.59961C12.9503 3.5998 12.95 3.6 12.5 3C12.05 2.4 12.0497 2.40022 12.0494 2.40046C12.0493 2.40055 12.0489 2.4008 12.0487 2.40098C12.0482 2.40136 12.0476 2.40178 12.047 2.40225C12.0458 2.40319 12.0443 2.40431 12.0426 2.40562C12.0391 2.40825 12.0347 2.41162 12.0294 2.41575C12.0187 2.42399 12.0044 2.43525 11.9866 2.4495C11.9509 2.47802 11.9014 2.51857 11.84 2.57118C11.7173 2.67637 11.5468 2.82999 11.3447 3.03217C10.9407 3.43615 10.4077 4.03643 9.87596 4.83397C8.81065 6.43195 7.75 8.82427 7.75 12H9.25ZM21.5 11.25H3.5V12.75H21.5V11.25Z" />
</svg>
