<svg viewBox="0 0 23 25" fill="black" xmlns="http://www.w3.org/2000/svg">
	<path d="M3 17.5L3.14951 16.7651C2.85037 16.7042 2.54419 16.8307 2.37528 17.085C2.20636 17.3393 2.20842 17.6706 2.38048 17.9227L3 17.5ZM11 3.5L11.0197 2.75026C10.7138 2.74222 10.4336 2.92087 10.3119 3.20166C10.1902 3.48244 10.2512 3.80903 10.4662 4.02685L11 3.5ZM20.75 12.5C20.75 7.18571 16.4073 2.89187 11.0197 2.75026L10.9803 4.24974C15.5941 4.37102 19.25 8.03726 19.25 12.5H20.75ZM11 22.25C16.5411 22.25 20.75 17.8776 20.75 12.5H19.25C19.25 17.0653 15.6966 20.75 11 20.75V22.25ZM2.38048 17.9227C4.193 20.5791 7.54799 22.25 11 22.25V20.75C7.99422 20.75 5.12576 19.2847 3.61952 17.0773L2.38048 17.9227ZM2.85049 18.2349C7.19156 19.118 10.912 16.8566 12.7631 13.6399C14.6167 10.4189 14.6531 6.13357 11.5338 2.97315L10.4662 4.02685C13.0298 6.62418 13.0422 10.1476 11.463 12.8917C9.88152 15.6399 6.76047 17.4996 3.14951 16.7651L2.85049 18.2349Z" />
</svg>
