<svg  viewBox="0 0 24 25" fill="black" xmlns="http://www.w3.org/2000/svg">
	<path d="M3 11.75C2.58579 11.75 2.25 12.0858 2.25 12.5C2.25 12.9142 2.58579 13.25 3 13.25V11.75ZM5 13.25C5.41421 13.25 5.75 12.9142 5.75 12.5C5.75 12.0858 5.41421 11.75 5 11.75V13.25ZM4.46973 18.9697C4.17684 19.2626 4.17684 19.7374 4.46973 20.0303C4.76262 20.3232 5.2375 20.3232 5.53039 20.0303L4.46973 18.9697ZM7.53039 18.0303C7.82328 17.7374 7.82328 17.2626 7.53039 16.9697C7.2375 16.6768 6.76262 16.6768 6.46973 16.9697L7.53039 18.0303ZM12.75 19.5C12.75 19.0858 12.4142 18.75 12 18.75C11.5858 18.75 11.25 19.0858 11.25 19.5H12.75ZM11.25 21.5C11.25 21.9142 11.5858 22.25 12 22.25C12.4142 22.25 12.75 21.9142 12.75 21.5H11.25ZM17.5303 16.9697C17.2374 16.6768 16.7626 16.6768 16.4697 16.9697C16.1768 17.2626 16.1768 17.7374 16.4697 18.0303L17.5303 16.9697ZM18.4697 20.0303C18.7626 20.3232 19.2374 20.3232 19.5303 20.0303C19.8232 19.7374 19.8232 19.2626 19.5303 18.9697L18.4697 20.0303ZM5.53033 4.96967C5.23744 4.67678 4.76256 4.67678 4.46967 4.96967C4.17678 5.26256 4.17678 5.73744 4.46967 6.03033L5.53033 4.96967ZM6.46967 8.03033C6.76256 8.32322 7.23744 8.32322 7.53033 8.03033C7.82322 7.73744 7.82322 7.26256 7.53033 6.96967L6.46967 8.03033ZM19 11.75C18.5858 11.75 18.25 12.0858 18.25 12.5C18.25 12.9142 18.5858 13.25 19 13.25V11.75ZM21 13.25C21.4142 13.25 21.75 12.9142 21.75 12.5C21.75 12.0858 21.4142 11.75 21 11.75V13.25ZM16.4696 6.96967C16.1767 7.26256 16.1767 7.73744 16.4696 8.03033C16.7625 8.32322 17.2374 8.32322 17.5303 8.03033L16.4696 6.96967ZM19.5303 6.03033C19.8232 5.73744 19.8232 5.26256 19.5303 4.96967C19.2374 4.67678 18.7625 4.67678 18.4696 4.96967L19.5303 6.03033ZM12.75 3.5C12.75 3.08579 12.4142 2.75 12 2.75C11.5858 2.75 11.25 3.08579 11.25 3.5H12.75ZM11.25 5.5C11.25 5.91421 11.5858 6.25 12 6.25C12.4142 6.25 12.75 5.91421 12.75 5.5H11.25ZM14.25 12.5C14.25 13.7426 13.2426 14.75 12 14.75V16.25C14.0711 16.25 15.75 14.5711 15.75 12.5H14.25ZM12 14.75C10.7574 14.75 9.75 13.7426 9.75 12.5H8.25C8.25 14.5711 9.92893 16.25 12 16.25V14.75ZM9.75 12.5C9.75 11.2574 10.7574 10.25 12 10.25V8.75C9.92893 8.75 8.25 10.4289 8.25 12.5H9.75ZM12 10.25C13.2426 10.25 14.25 11.2574 14.25 12.5H15.75C15.75 10.4289 14.0711 8.75 12 8.75V10.25ZM3 13.25H5V11.75H3V13.25ZM5.53039 20.0303L7.53039 18.0303L6.46973 16.9697L4.46973 18.9697L5.53039 20.0303ZM11.25 19.5V21.5H12.75V19.5H11.25ZM16.4697 18.0303L18.4697 20.0303L19.5303 18.9697L17.5303 16.9697L16.4697 18.0303ZM4.46967 6.03033L6.46967 8.03033L7.53033 6.96967L5.53033 4.96967L4.46967 6.03033ZM19 13.25H21V11.75H19V13.25ZM17.5303 8.03033L19.5303 6.03033L18.4696 4.96967L16.4696 6.96967L17.5303 8.03033ZM11.25 3.5V5.5H12.75V3.5H11.25Z" />
</svg>
